<svg height="26" viewBox="0 0 47 26" width="47" xmlns="http://www.w3.org/2000/svg"><path d="m0 21.3321414c0 .5816833.21144604 1.0214991.63424849 1.3196264.42284726.2980825.8748255.4034774 1.35597952.316274.45197824-.087248.76910248-.2472176.95141755-.4798641.18222544-.2326465.27338297-.6180217.27338297-1.1560363v-6.3254816c0-.4508112-.15672463-.8325213-.47021871-1.1451303-.31344926-.3126536-.69618541-.4689581-1.14820847-.4689581-.43741275 0-.81284375.1563045-1.12633783.4689581-.31349407.312609-.47026352.6943191-.47026352 1.1451303zm5.03024663 2.7046887c0 .4217584.14946429.7379878.44834807.9488669.29892859.2108792.68166474.3162741 1.14820846.3162741.48115403 0 .87115052-.1054396 1.17007911-.3162741.29888377-.2108344.44834807-.5271085.44834807-.9488669v-14.74491574c0-.43624011-.15676945-.81070934-.47021871-1.12331828-.31349407-.31260895-.69623023-.46895812-1.14820847-.46895812-.43741275 0-.81288857.15634917-1.12633783.46895812-.31349407.31265364-.4702187.68707817-.4702187 1.12331828zm5.00837597.6979842c0 .4217137.1530945.7379877.4592834.9488669.3061889.2108345.6998604.3162741 1.1810592.3162741.4665438 0 .8492799-.1054396 1.1481637-.3162741.2989286-.2108792.4483929-.5271532.4483929-.9488669v-13.4580074c0-.4507666-.1567695-.8361418-.4702187-1.1560363-.3134941-.31989454-.6889251-.47981945-1.1263379-.47981945-.452023 0-.8383893.15992491-1.1591437.47981945-.3207545.3198945-.4811541.7052697-.4811541 1.1560363v13.4580074zm5.0302466.065436c0 .7998033.5394608 1.199705 1.6184272 1.199705 1.0789216 0 1.6183824-.3999017 1.6183824-1.199705v-21.81200554c0-1.22147231-.3718009-1.91217092-1.1154025-2.07214053-.4811541-.11634559-.9550478.02181201-1.4215915.41442811-.4665885.3926161-.6998604.94515711-.6998604 1.65771242v21.81200554zm5.117774.6325482v-23.73146207c0-.75613462.2259667-1.20690117.6779898-1.35234434.9768735-.23264649 1.9464867-.34899209 2.9087948-.34899209 2.2307602 0 4.3085156.52348813 6.2330869 1.5704644 1.9246161 1.04697627 3.4811063 2.47566263 4.6693811 4.28605909 1.1883195 1.81044115 1.8772446 3.80619497 2.0667752 5.98744021.889391-.3780897 1.8370887-.5671121 2.8431381-.5671121 2.0412744 0 3.7872952.7197961 5.2380177 2.1593885 1.4507672 1.4396371 2.1761732 3.1700264 2.1761732 5.191302 0 2.0358021-.725406 3.773477-2.1761732 5.2130694-1.4507225 1.4395923-3.1894381 2.1593885-5.2161471 2.1593885l-19.0274546-.021812c-.1312687-.043624-.2296865-.1236312-.2952984-.2399321-.065612-.1163009-.0982835-.2182094-.0982835-.3054574z"/></svg>