<svg height="31" viewBox="0 0 31 31" width="31" xmlns="http://www.w3.org/2000/svg"><path d="m30.9966481 7.90972296c-.0010996-.95338938-.0835726-1.90018091-.3100984-2.83047781-.409066-1.6890497-1.3712509-2.98332801-2.8161777-3.9290199-.7411572-.484942-1.5548907-.78404455-2.4236062-.94019368-.668581-.11986095-1.3426603-.17484303-2.021138-.19463659-.0527828-.00219928-.1077648-.00989677-.1605475-.01539498h-15.53131323c-.19573589.01099642-.39147178.02199283-.58720768.03298925-.96548379.05498209-1.92436974.16054769-2.83157261.5190309-1.72863385.68397715-2.97342616 1.87598879-3.70358702 3.5892306-.24741897.58061084-.37717647 1.19641021-.46844658 1.81990707-.07367587.50583519-.11546218 1.01386967-.1297575 1.52520308-.00109964.0395871-.00989676.0791742-.01319568.1187613v15.7897556c.0109964.1825405.02089316.3650811.0329892.5476216.06487875 1.0523571.19903481 2.0981164.64218967 3.0647015.84012485 1.8342024 2.24436494 3.0394097 4.17753179 3.6189209.54432173.1638466 1.10513805.2419212 1.67035294.294704.71586554.0681778 1.43393036.0791742 2.15199519.0791742 4.74934451 0 9.49868901 0 14.24803351-.0021993.6784778 0 1.3536567-.042886 2.0277359-.1275584 1.0633518-.1363556 2.0629244-.4530524 2.9657287-1.046859 1.0864442-.7147671 1.9012773-1.6626582 2.4280048-2.8524706.2408211-.5443227.3782761-1.1227342.4772437-1.7099429.1473517-.8720159.1792413-1.7539285.1781688-2.6358412-.0022264-4.9055018.0010725-9.8099039-.0033261-14.71540564m-8.2967826 5.15402074c0 2.4598986.0010996 4.9197971-.0010997 7.3785961 0 .5388244-.0736759 1.0677521-.3133973 1.5581923-.372778.7631513-.9830781 1.2425951-1.792413 1.4724203-.4508523.128658-.9116014.202334-1.3811477.2232272-1.2293973.058281-2.2916494-.7752474-2.5115774-1.9837536-.1825402-.9973751.2947035-2.0970168 1.3426603-2.6105495.4178631-.2067327.8643169-.322195 1.3151692-.4189635.4882401-.1055656.9786795-.1979355 1.4647203-.310099.3540841-.0813735.5905066-.2980029.6597839-.6663829.0164946-.0813735.0230925-.1660459.0230925-.2496186.0010996-2.3444362.0010996-4.6877727-.0010997-7.0311093 0-.0802738-.0131956-.1616473-.0329892-.2386222-.0505834-.1946366-.1924369-.31339791-.3925714-.30240149-.2067323.01209606-.4101657.04508531-.613599.08577205-.9819784.19353694-1.9628572.39257214-2.9437359.59050764-1.0017719.2012344-2.0035438.4046681-3.0064154.6070022-.5916062.119861-1.1832124.2386223-1.7748187.3584832-.0208931.0043986-.0417863.0109964-.0615798.0164946-.357383.0989678-.4871405.2628144-.5036351.632294-.0021992.0560818-.0010996.1121635-.0010996.1693449-.0010996 3.3605051 0 6.7221099-.0021993 10.0815153 0 .543223-.0604802 1.0798482-.2782089 1.5845838-.3595822.8291298-.995174 1.3448618-1.8528931 1.5944805-.45305164.1308573-.91819929.205633-1.38884515.2221276-1.23819447.046185-2.26635773-.7763471-2.47858822-1.9947501-.18363986-1.0501578.29690276-2.1772906 1.48891235-2.6820262.4607491-.1935369.94459064-.3002022 1.43063145-.4013692.37057863-.0780746.7422569-.1484516 1.11173587-.2276258.4937383-.1077649.7521537-.4178639.7730468-.9225995.0021993-.0659785.0010997-.128658.0010997-.1946365 0-3.8234543 0-7.6480083.0021993-11.47146256 0-.15944805.0164946-.32329467.0538823-.47834415.0901705-.36837998.3529844-.57841155.7048692-.66968182.3298919-.08577205.6652821-.14515271.9995726-.21333049.9467899-.19133766 1.8935798-.38157568 2.8403697-.5718137.9786795-.19793551 1.9562593-.39477138 2.9349388-.5927069.8643169-.17484303 1.7286338-.35188535 2.59515-.52232982.2837071-.05608173.5718128-.1132631.8577191-.13635557.4002689-.03188961.6751789.21992834.7158656.62239722.0098967.09566883.0153949.1924373.0153949.28920577.0021993 2.46869569.0021993 4.93629172.0010997 7.40388772z"/></svg>